<svg width="378" height="213" viewBox="0 0 378 213" fill="none" xmlns="http://www.w3.org/2000/svg">
<g filter="url(#filter0_b_2468_2379)">
<ellipse cx="188.622" cy="106.729" rx="178" ry="67.5" transform="rotate(-13 188.622 106.729)" fill="white" fill-opacity="0.19"/>
<path d="M361.086 66.9124C363.096 75.6189 360.387 85.1001 353.523 94.8594C346.659 104.618 335.702 114.556 321.442 124.09C292.928 143.155 251.388 160.487 203.581 171.524C155.775 182.561 110.841 185.194 76.855 180.558C59.8583 178.239 45.6545 174.11 35.2071 168.348C24.7592 162.586 18.1686 155.252 16.1586 146.545C14.1485 137.838 16.8569 128.357 23.7214 118.598C30.5855 108.839 41.5418 98.9017 55.8019 89.3671C84.316 70.302 125.856 52.9701 173.663 41.9331C221.469 30.8961 266.403 28.2639 300.389 32.8996C317.386 35.218 331.59 39.347 342.037 45.109C352.485 50.8714 359.076 58.2058 361.086 66.9124Z" stroke="#D9FF5A" stroke-width="2"/>
</g>
<path d="M366.139 98.0696C366.451 107 361.984 115.79 353.383 124.06C344.783 132.33 332.132 139.994 316.314 146.633C284.686 159.907 240.602 168.994 191.568 170.706C142.534 172.419 97.9233 166.429 65.4464 155.393C49.2044 149.874 36.0494 143.111 26.8934 135.461C17.737 127.811 12.667 119.354 12.3551 110.424C12.0433 101.494 16.511 92.7036 25.1115 84.4335C33.7115 76.1638 46.3627 68.4993 62.1802 61.8608C93.8082 48.5868 137.892 39.4996 186.926 37.7873C235.961 36.075 280.571 42.0649 313.048 53.1003C329.29 58.6193 342.445 65.3826 351.601 73.0322C360.758 80.6823 365.828 89.1394 366.139 98.0696Z" stroke="#D9FF5A" stroke-width="2"/>
<defs>
<filter id="filter0_b_2468_2379" x="-15.7596" y="-0.552544" width="408.763" height="214.563" filterUnits="userSpaceOnUse" color-interpolation-filters="sRGB">
<feFlood flood-opacity="0" result="BackgroundImageFix"/>
<feGaussianBlur in="BackgroundImageFix" stdDeviation="15.1352"/>
<feComposite in2="SourceAlpha" operator="in" result="effect1_backgroundBlur_2468_2379"/>
<feBlend mode="normal" in="SourceGraphic" in2="effect1_backgroundBlur_2468_2379" result="shape"/>
</filter>
</defs>
</svg>
