<svg width="388" height="462" viewBox="0 0 388 462" fill="none" xmlns="http://www.w3.org/2000/svg">
<path fill-rule="evenodd" clip-rule="evenodd" d="M83.6289 455.625C98.8589 469.226 121.265 458.556 132.088 441.241C146.648 417.948 169.193 403 194.5 403C219.626 403 242.029 417.735 256.598 440.741C267.533 458.011 290.025 468.583 305.196 454.884C355.264 409.675 388 334.764 388 250V250C388 243.069 382.224 237.709 375.336 236.937C355.438 234.707 337.984 226.446 330.992 211.451C321.908 191.971 330.108 169.463 348.347 150.371C357.937 140.333 362.795 125.802 356.517 113.42C321.885 45.1273 262.032 0 194 0C86.8568 0 0 111.929 0 250C0 335.229 33.0955 410.496 83.6289 455.625Z" fill="#CBB6FF"/>
<path d="M101.603 415.638L102.838 416.603L97.913 422.908L96.5261 421.824L99.8063 417.625L93.311 419.312L92.0754 418.347L97.0007 412.043L98.3876 413.126L95.1074 417.325L101.603 415.638Z" fill="white"/>
<path d="M91.7198 407.143C92.3517 407.733 92.7637 408.401 92.9559 409.149C93.1408 409.905 93.0153 410.634 92.5794 411.336L91.2571 410.103C91.5511 409.444 91.3743 408.812 90.7268 408.208C90.3607 407.881 90.0149 407.705 89.6895 407.678C89.3562 407.645 89.0768 407.749 88.8513 407.991C88.6185 408.24 88.53 408.515 88.5858 408.815C88.6343 409.123 88.8223 409.429 89.15 409.735L89.8404 410.379L88.9565 411.327L88.2895 410.705C88.0165 410.45 87.7474 410.308 87.4822 410.28C87.2098 410.259 86.9645 410.366 86.7463 410.6C86.5353 410.826 86.4574 411.082 86.5126 411.367C86.5606 411.659 86.7328 411.944 87.0292 412.22C87.6143 412.766 88.2029 412.87 88.7948 412.532L90.082 413.733C89.4194 414.208 88.7312 414.383 88.0174 414.257C87.2957 414.124 86.6385 413.781 86.0456 413.228C85.3513 412.581 84.9697 411.919 84.9008 411.242C84.8246 410.573 85.0011 410.008 85.4303 409.548C85.9395 409.002 86.5321 408.789 87.2079 408.908C86.8993 408.066 87.0432 407.326 87.6397 406.686C88.0908 406.202 88.6981 405.981 89.4618 406.022C90.2104 406.064 90.9631 406.438 91.7198 407.143Z" fill="white"/>
<path d="M87.0893 402.508L81.3346 408.065L77.689 404.29L78.8169 403.2L81.2399 405.71L85.8667 401.242L87.0893 402.508Z" fill="white"/>
<path d="M76.4144 392.598C77.543 392.676 78.4957 393.163 79.2725 394.056C80.0493 394.95 80.4017 395.965 80.3298 397.102C80.2428 398.237 79.7606 399.186 78.8831 399.949C78.0056 400.712 77.0026 401.054 75.874 400.975C74.7303 400.895 73.7701 400.408 72.9933 399.515C72.2165 398.621 71.8716 397.607 71.9586 396.471C72.0305 395.334 72.5052 394.385 73.3827 393.622C74.2602 392.859 75.2708 392.518 76.4144 392.598ZM78.0408 395.127C77.5859 394.604 77.0304 394.33 76.3742 394.307C75.703 394.283 75.0977 394.505 74.5584 394.974C74.019 395.443 73.7186 396.008 73.6573 396.669C73.5809 397.329 73.7701 397.921 74.225 398.444C74.6869 398.975 75.2534 399.253 75.9246 399.277C76.5808 399.301 77.1786 399.078 77.7179 398.609C78.2573 398.14 78.5652 397.576 78.6416 396.916C78.7029 396.254 78.5027 395.658 78.0408 395.127Z" fill="white"/>
<path d="M74.0221 388.123L68.9536 392.083L70.4312 393.974L69.1956 394.939L65.0879 389.682L66.3235 388.716L67.87 390.696L72.9385 386.736L74.0221 388.123Z" fill="white"/>
<path d="M64.6976 376.918C65.8118 377.114 66.7085 377.698 67.3876 378.667C68.0667 379.637 68.3111 380.684 68.1208 381.807C67.9156 382.927 67.3368 383.821 66.3844 384.487C65.432 385.154 64.3987 385.389 63.2845 385.193C62.1554 384.994 61.2514 384.409 60.5722 383.44C59.8931 382.47 59.6562 381.425 59.8614 380.304C60.0517 379.181 60.6231 378.287 61.5755 377.62C62.5279 376.953 63.5686 376.719 64.6976 376.918ZM66.0507 379.604C65.6531 379.036 65.1291 378.706 64.479 378.614C63.814 378.52 63.1888 378.678 62.6033 379.088C62.0179 379.497 61.6601 380.028 61.53 380.679C61.3851 381.327 61.5114 381.936 61.9091 382.504C62.3129 383.08 62.8473 383.416 63.5123 383.51C64.1625 383.602 64.7803 383.443 65.3657 383.033C65.9511 382.623 66.3163 382.094 66.4613 381.445C66.5914 380.794 66.4545 380.18 66.0507 379.604Z" fill="white"/>
<path d="M63.8181 373.32L56.9607 377.44L55.0819 374.314C54.6094 373.527 54.4342 372.811 54.5564 372.165C54.6786 371.52 55.0185 371.029 55.5762 370.694C56.0608 370.403 56.5895 370.34 57.1621 370.506C57.1177 369.625 57.4566 368.967 58.1789 368.533C58.7549 368.187 59.3631 368.101 60.0035 368.276C60.6347 368.457 61.2003 368.963 61.7002 369.796L63.8181 373.32ZM61.6361 372.578L60.433 370.576C60.2517 370.274 60.0357 370.08 59.7851 369.994C59.5197 369.905 59.2545 369.94 58.9894 370.099C58.7151 370.264 58.5597 370.482 58.5233 370.752C58.4722 371.02 58.5374 371.304 58.7187 371.606L59.9218 373.608L61.6361 372.578ZM58.8246 374.267L57.8193 372.594C57.6709 372.347 57.4879 372.177 57.2701 372.084C57.0378 371.987 56.7844 372.021 56.5101 372.186C55.9981 372.494 55.9179 372.94 56.2695 373.525L57.2749 375.198L58.8246 374.267Z" fill="white"/>
<path d="M58.2686 363.731C58.4539 364.079 58.5703 364.344 58.6177 364.524L57.2756 365.237C57.1843 365.02 57.1111 364.86 57.056 364.756C56.9008 364.464 56.6914 364.298 56.4279 364.256C56.155 364.22 55.7737 364.333 55.284 364.593L50.7916 366.982L47.7344 361.232L54.7979 357.476L55.6242 359.03L49.9451 362.05L51.3497 364.691L54.6979 362.911C55.4984 362.486 56.2136 362.365 56.8433 362.55C57.468 362.725 57.9431 363.119 58.2686 363.731Z" fill="white"/>
<path d="M51.1187 352.006C51.6235 353.089 51.6854 354.143 51.3043 355.168C50.9135 356.198 50.1719 356.967 49.0795 357.477C47.9871 357.986 46.928 358.062 45.9022 357.705C44.8668 357.352 44.0898 356.62 43.5714 355.508C43.0485 354.387 43.0185 353.3 43.4815 352.249C43.9348 351.202 44.7886 350.433 46.0427 349.942L48.7339 355.713C49.2856 355.433 49.6553 355.001 49.843 354.42C50.0307 353.838 49.978 353.233 49.685 352.604C49.2703 351.715 48.6479 351.264 47.818 351.25L47.0403 349.583C47.8497 349.476 48.6281 349.631 49.3755 350.047C50.1229 350.464 50.7039 351.117 51.1187 352.006ZM44.9258 354.929C45.1692 355.451 45.5287 355.831 46.0042 356.068C46.4655 356.3 46.9916 356.343 47.5826 356.197L45.7095 352.181C45.2029 352.558 44.8929 352.991 44.7793 353.479C44.6561 353.972 44.7049 354.456 44.9258 354.929Z" fill="white"/>
<path d="M48.7545 344.782L41.337 347.779L40.6777 346.147L43.6151 344.96L42.1706 341.385L39.2333 342.572L38.5739 340.94L45.9914 337.943L46.6507 339.575L43.6244 340.798L45.0689 344.373L48.0952 343.15L48.7545 344.782Z" fill="white"/>
<path d="M43.5038 332.817L44.0143 334.3L36.4501 336.904L35.8771 335.24L40.9148 333.506L34.5488 331.382L34.0383 329.9L41.6024 327.295L42.1754 328.959L37.1377 330.694L43.5038 332.817Z" fill="white"/>
<path d="M39.4257 319.387C39.755 320.536 39.6512 321.586 39.1144 322.539C38.5674 323.495 37.7145 324.139 36.5559 324.471C35.3972 324.803 34.3393 324.713 33.382 324.2C32.4145 323.689 31.7617 322.844 31.4236 321.665C31.0825 320.476 31.2229 319.398 31.8447 318.432C32.4562 317.469 33.4197 316.843 34.7352 316.554L36.4904 322.676C37.0792 322.485 37.5118 322.116 37.7882 321.571C38.0646 321.026 38.1073 320.42 37.9162 319.753C37.6457 318.81 37.1016 318.267 36.2839 318.124L35.7767 316.356C36.5928 316.377 37.3374 316.652 38.0104 317.18C38.6834 317.708 39.1552 318.444 39.4257 319.387ZM32.8518 321.306C33.0106 321.859 33.3062 322.29 33.7387 322.599C34.1581 322.901 34.671 323.025 35.2775 322.974L34.0559 318.713C33.4965 319.007 33.1225 319.386 32.9339 319.851C32.7351 320.318 32.7077 320.803 32.8518 321.306Z" fill="white"/>
<path d="M36.5125 307.555L28.6873 309.219L28.3214 307.497L31.4201 306.838L30.6184 303.067L27.5197 303.725L27.1537 302.004L34.9789 300.341L35.3448 302.062L32.1522 302.741L32.9539 306.512L36.1466 305.834L36.5125 307.555Z" fill="white"/>
<path d="M33.3233 292.846C33.4935 293.92 33.2367 294.89 32.5528 295.754C31.8672 296.608 30.9555 297.125 29.8177 297.305C28.6799 297.485 27.6531 297.275 26.7373 296.675C25.8198 296.064 25.2759 295.222 25.1057 294.147C25.0206 293.61 25.0634 293.096 25.2339 292.604C25.394 292.114 25.6233 291.722 25.9221 291.426L24.8633 291.594L24.588 289.855L32.4895 288.604L32.7648 290.342L31.706 290.51C32.0815 290.699 32.4263 291.001 32.7404 291.415C33.0439 291.832 33.2382 292.308 33.3233 292.846ZM31.2338 294.586C31.6484 294.067 31.8014 293.465 31.6929 292.78C31.5845 292.095 31.2529 291.57 30.6982 291.204C30.1435 290.838 29.5079 290.712 28.7915 290.826C28.0751 290.939 27.5096 291.256 27.0951 291.775C26.6806 292.294 26.5275 292.896 26.636 293.581C26.7444 294.266 27.076 294.791 27.6307 295.157C28.1854 295.522 28.821 295.648 29.5374 295.535C30.2538 295.422 30.8193 295.105 31.2338 294.586Z" fill="white"/>
<path d="M31.7721 276.091C31.8474 276.952 31.7062 277.724 31.3485 278.409C30.9802 279.094 30.3992 279.552 29.6056 279.782L29.448 277.981C30.1076 277.687 30.3988 277.1 30.3217 276.218C30.2683 275.73 30.1295 275.367 29.9053 275.13C29.6801 274.882 29.4029 274.772 29.0734 274.801C28.7334 274.831 28.4838 274.976 28.3245 275.236C28.1546 275.497 28.0892 275.851 28.1282 276.297L28.2105 277.238L26.9194 277.351L26.84 276.442C26.8074 276.07 26.7022 275.785 26.5242 275.586C26.3356 275.389 26.0819 275.304 25.7631 275.332C25.4549 275.359 25.2261 275.496 25.0765 275.745C24.9163 275.995 24.8539 276.321 24.8892 276.725C24.9589 277.522 25.3267 277.993 25.9926 278.138L26.146 279.892C25.3351 279.802 24.7065 279.472 24.2604 278.9C23.8133 278.318 23.5544 277.624 23.4838 276.816C23.401 275.87 23.5605 275.123 23.9622 274.574C24.3532 274.026 24.8622 273.724 25.4891 273.669C26.233 273.604 26.8159 273.842 27.2381 274.384C27.5721 273.551 28.1748 273.097 29.0462 273.021C29.705 272.963 30.3044 273.205 30.8443 273.747C31.3727 274.279 31.6819 275.06 31.7721 276.091Z" fill="white"/>
<path d="M30.9101 264.959C30.967 266.045 30.6103 266.982 29.8398 267.77C29.0688 268.548 28.108 268.967 26.9576 269.027C25.8072 269.087 24.8079 268.771 23.9599 268.079C23.1112 267.375 22.6584 266.48 22.6015 265.394C22.573 264.851 22.6693 264.344 22.8903 263.873C23.1006 263.402 23.3698 263.036 23.6978 262.773L22.6273 262.829L22.5352 261.072L30.5242 260.653L30.6163 262.41L29.5458 262.467C29.8995 262.694 30.2109 263.03 30.4799 263.475C30.7382 263.921 30.8816 264.415 30.9101 264.959ZM28.6502 266.471C29.1167 265.998 29.3318 265.415 29.2955 264.723C29.2593 264.03 28.9844 263.473 28.471 263.052C27.9575 262.63 27.3386 262.438 26.6143 262.476C25.8899 262.514 25.2945 262.769 24.828 263.242C24.3614 263.716 24.1463 264.298 24.1826 264.991C24.2188 265.683 24.4937 266.24 25.0072 266.662C25.5206 267.084 26.1395 267.275 26.8638 267.237C27.5882 267.199 28.1836 266.944 28.6502 266.471Z" fill="white"/>
<path d="M29.999 251.504L26.591 255.056L29.999 255.056L29.999 256.816L21.999 256.816L21.999 255.056L25.423 255.056L21.999 251.904L21.999 249.76L25.935 253.392L29.999 249.184L29.999 251.504Z" fill="white"/>
<path d="M30.309 243.929C30.271 245.016 29.8339 245.919 28.9977 246.637C28.1618 247.344 27.1683 247.677 26.017 247.637C24.8657 247.597 23.8978 247.195 23.1133 246.431C22.3292 245.657 21.9561 244.726 21.9941 243.638C22.013 243.095 22.1531 242.598 22.4143 242.148C22.6649 241.698 22.965 241.356 23.3147 241.123L22.2433 241.085L22.3047 239.327L30.2999 239.606L30.2384 241.365L29.1671 241.327C29.4996 241.584 29.7805 241.946 30.0097 242.413C30.2282 242.88 30.328 243.385 30.309 243.929ZM27.9258 245.238C28.4318 244.808 28.6969 244.246 28.7211 243.553C28.7453 242.86 28.5201 242.281 28.0453 241.816C27.5706 241.352 26.9708 241.106 26.2459 241.081C25.521 241.056 24.9056 241.258 24.3996 241.689C23.8936 242.12 23.6285 242.681 23.6043 243.374C23.5801 244.067 23.8053 244.646 24.2801 245.111C24.7548 245.576 25.3546 245.821 26.0795 245.846C26.8044 245.872 27.4198 245.669 27.9258 245.238Z" fill="white"/>
<path d="M30.4085 232.837C30.3482 233.698 30.0879 234.439 29.6275 235.06C29.1565 235.679 28.5111 236.04 27.6912 236.143L27.8173 234.34C28.5147 234.153 28.8943 233.618 28.956 232.735C28.9796 232.245 28.8993 231.865 28.7149 231.595C28.5314 231.315 28.2747 231.164 27.9448 231.141C27.6043 231.117 27.335 231.221 27.137 231.453C26.9284 231.684 26.8084 232.023 26.7772 232.47L26.7113 233.412L25.4185 233.322L25.4821 232.412C25.5082 232.039 25.4488 231.741 25.3041 231.517C25.1487 231.293 24.9114 231.169 24.5922 231.147C24.2836 231.125 24.036 231.225 23.8494 231.448C23.6521 231.669 23.5394 231.982 23.5111 232.386C23.4553 233.184 23.7449 233.707 24.3798 233.955L24.257 235.71C23.4701 235.495 22.9011 235.07 22.5498 234.436C22.1992 233.792 22.0522 233.065 22.1088 232.256C22.175 231.309 22.4494 230.596 22.932 230.116C23.404 229.636 23.9539 229.418 24.5817 229.462C25.3266 229.514 25.8651 229.84 26.1973 230.441C26.6575 229.671 27.3238 229.317 28.1964 229.378C28.8561 229.424 29.4102 229.757 29.8588 230.376C30.2974 230.984 30.4807 231.804 30.4085 232.837Z" fill="white"/>
</svg>
