<svg width="219" height="130" viewBox="0 0 219 130" fill="none" xmlns="http://www.w3.org/2000/svg">
<path d="M216.513 36.5572C220.588 51.7624 212.725 68.8657 196.192 84.2792C179.694 99.6589 154.754 113.152 125.273 121.051C95.7916 128.951 67.4467 129.736 45.4697 124.665C23.4444 119.583 8.0839 108.703 4.00969 93.4974C-0.0645218 78.2923 7.79768 61.189 24.3313 45.7754C40.8286 30.3957 65.7686 16.9031 95.25 9.00361C124.731 1.10409 153.076 0.318975 175.053 5.38955C197.079 10.4713 212.439 21.3521 216.513 36.5572Z" fill="#EBE3FF" fill-opacity="0.19" stroke="#D9FF5A" stroke-width="2"/>
<path d="M61.2955 102.539L62.5161 107.095L60.3775 107.668L57.1164 95.4971C57.7191 95.3356 58.3725 95.1543 59.0764 94.9533C59.7804 94.7522 60.3584 94.5912 60.8104 94.47C63.7546 93.6812 65.5621 94.5386 66.2329 97.0422C66.4814 97.9695 66.4488 98.7982 66.135 99.5283C65.8151 100.235 65.3759 100.775 64.8175 101.148L69.9576 105.101L67.3669 105.795L62.7907 102.139L61.2955 102.539ZM61.2419 96.4975C61.1839 96.513 61.0927 96.5436 60.9683 96.5894C60.8408 96.6235 60.6627 96.6775 60.434 96.7512C60.2022 96.8133 59.9877 96.8708 59.7907 96.9236L60.7597 100.54L62.1507 100.167C62.8345 99.984 63.3459 99.6669 63.6847 99.2158C64.0351 98.7617 64.1326 98.2448 63.9773 97.6653C63.6605 96.483 62.7487 96.0937 61.2419 96.4975ZM76.0851 101.111L77.0362 102.366C76.4335 103.223 75.5236 103.814 74.3066 104.14C73.0547 104.476 71.9338 104.373 70.9437 103.83C69.9799 103.293 69.3319 102.405 68.9995 101.165C68.689 100.006 68.8048 98.9309 69.347 97.9409C69.8892 96.9508 70.7863 96.288 72.0381 95.9526C73.0697 95.6762 74.0365 95.7836 74.9383 96.275C75.8402 96.7663 76.4325 97.5393 76.7151 98.5941C76.8394 99.0578 76.8951 99.428 76.8823 99.7047L71.2316 101.219C71.4649 101.765 71.8337 102.144 72.338 102.357C72.8538 102.567 73.4305 102.586 74.068 102.415C74.9373 102.183 75.6097 101.748 76.0851 101.111ZM72.3984 97.645C71.2625 97.9494 70.7308 98.7006 70.8033 99.8987L74.6458 98.8691C74.5238 98.3675 74.2528 98.0053 73.8328 97.7824C73.4213 97.5449 72.9432 97.4991 72.3984 97.645ZM87.8914 104.022L85.892 104.558L84.8531 100.681C84.3559 101.237 83.7654 101.606 83.0815 101.789C81.8413 102.122 80.7509 102.016 79.8103 101.473C78.8781 100.915 78.2459 100.016 77.9136 98.7761C77.5999 97.6054 77.7621 96.5184 78.4002 95.5151C79.0467 94.4971 80.0133 93.8157 81.2999 93.4709C82.6445 93.1106 83.899 93.1099 85.0636 93.4687L87.8914 104.022ZM82.8439 99.859C83.5161 99.6788 84.0088 99.2921 84.322 98.6989L83.4182 95.3259C82.8282 95.2106 82.2841 95.2198 81.7856 95.3533C81.067 95.5459 80.558 95.9183 80.2588 96.4706C79.9564 97.0113 79.8953 97.6178 80.0754 98.29C80.2432 98.916 80.5784 99.379 81.0812 99.6791C81.5956 99.976 82.1832 100.036 82.8439 99.859ZM92.1412 90.771L94.1407 90.2352L96.2371 98.0592L94.2376 98.595L93.9814 97.6387C93.5605 98.5715 92.8284 99.1776 91.7852 99.4571C90.9506 99.6807 90.2096 99.5811 89.5621 99.1583C88.9146 98.7355 88.4511 98.0025 88.1716 96.9593L86.8904 92.1779L88.8899 91.6422L90.0592 96.0062C90.3791 97.2001 91.0375 97.6635 92.0343 97.3964C92.7182 97.2132 93.2182 96.7376 93.5342 95.9696L92.1412 90.771ZM104.016 93.6269L104.967 94.8815C104.364 95.7387 103.454 96.3304 102.237 96.6565C100.985 96.9919 99.8645 96.8885 98.8744 96.3463C97.9106 95.8094 97.2626 94.9209 96.9303 93.6806C96.6197 92.5215 96.7355 91.4469 97.2777 90.4569C97.82 89.4668 98.717 88.804 99.9688 88.4686C101 88.1922 101.967 88.2996 102.869 88.7909C103.771 89.2823 104.363 90.0553 104.646 91.1101C104.77 91.5737 104.826 91.9439 104.813 92.2207L99.1623 93.7348C99.3957 94.281 99.7644 94.6605 100.269 94.8732C100.785 95.0829 101.361 95.1023 101.999 94.9314C102.868 94.6985 103.54 94.2637 104.016 93.6269ZM100.329 90.161C99.1932 90.4654 98.6615 91.2166 98.7341 92.4146L102.577 91.3851C102.455 90.8835 102.184 90.5213 101.764 90.2984C101.352 90.0608 100.874 90.015 100.329 90.161ZM105.66 89.4966C105.464 88.7664 105.576 88.1154 105.994 87.5437C106.412 86.9719 107.044 86.5727 107.891 86.346C109.166 86.0043 110.245 86.0691 111.129 86.5404L110.764 88.1664C109.993 87.8388 109.219 87.779 108.442 87.9871C108.164 88.0617 107.951 88.1933 107.803 88.3821C107.651 88.5593 107.601 88.7406 107.65 88.9261C107.753 89.3086 108.331 89.4954 109.384 89.4864C109.765 89.4712 110.109 89.4785 110.415 89.5083C110.718 89.5265 111.039 89.5895 111.379 89.6973C111.727 89.7904 112.021 89.9601 112.261 90.2064C112.501 90.4527 112.672 90.7671 112.774 91.1496C112.979 91.9147 112.853 92.6008 112.394 93.2082C111.947 93.8124 111.243 94.2434 110.281 94.5012C109.597 94.6845 108.892 94.7182 108.165 94.6023C107.423 94.478 106.92 94.29 106.653 94.0383L107.278 92.4734C107.569 92.681 107.995 92.8092 108.555 92.858C109.129 92.9153 109.602 92.8942 109.973 92.7948C110.437 92.7201 110.717 92.4898 110.812 92.1039C110.905 91.7065 110.707 91.4551 110.219 91.3498C110.02 91.3037 109.722 91.2781 109.323 91.2732C108.935 91.2652 108.571 91.2509 108.23 91.2305C107.898 91.1953 107.546 91.1343 107.175 91.0474C106.816 90.9573 106.503 90.7865 106.236 90.5348C105.967 90.2716 105.775 89.9255 105.66 89.4966ZM114.185 90.0634L112.303 83.0392L114.303 82.5035L114.885 84.6768L117.406 84.0013L117.909 85.8791L115.388 86.5546L116.152 89.406C116.404 90.3449 116.842 90.7304 117.468 90.5627C117.863 90.4571 118.222 90.1993 118.547 89.7892L119.57 91.1736C119.069 91.8544 118.367 92.316 117.463 92.5582C116.617 92.7849 115.928 92.6961 115.397 92.2917C114.875 91.8726 114.471 91.1298 114.185 90.0634ZM126.3 90.0039L126.144 90.0458L122.882 77.8752L123.074 77.8239C123.572 77.6904 124.034 77.5603 124.46 77.4338C125.311 77.1808 125.818 77.0326 125.981 76.9891C127.151 76.6754 128.226 76.5613 129.206 76.6467C130.194 76.7174 131.031 76.9653 131.716 77.3904C132.398 77.8039 132.962 78.33 133.406 78.9687C133.859 79.5927 134.194 80.3105 134.412 81.1218C134.902 82.9532 134.697 84.6231 133.797 86.1315C132.909 87.6368 131.351 88.6876 129.126 89.284C128.628 89.4175 128.168 89.5344 127.748 89.6346C127.327 89.7348 126.845 89.8579 126.3 90.0039ZM126.188 77.9025C125.933 77.9708 125.56 78.0834 125.067 78.2401C124.584 78.3821 124.255 78.4765 124.081 78.523L126.858 88.8855C127.24 88.783 127.601 88.6925 127.94 88.614C128.276 88.524 128.521 88.4645 128.675 88.4358C128.826 88.3954 128.907 88.3736 128.918 88.3705C130.808 87.8643 132.135 86.9745 132.899 85.7013C133.661 84.4164 133.829 82.98 133.403 81.392C133.002 79.8968 132.184 78.8117 130.947 78.1368C129.699 77.4651 128.112 77.3869 126.188 77.9025ZM144.069 83.4725L144.551 84.0888C144.042 85.0201 143.18 85.6488 141.962 85.9749C140.711 86.3103 139.609 86.208 138.656 85.6681C137.693 85.1312 137.046 84.2485 136.717 83.0198C136.4 81.8375 136.487 80.7707 136.977 79.8193C137.48 78.8649 138.351 78.2215 139.591 77.8892C140.599 77.6189 141.532 77.7168 142.39 78.1826C143.233 78.64 143.798 79.4019 144.084 80.4683C144.158 80.7465 144.206 80.9945 144.227 81.2125L137.777 82.9409C138.063 83.8704 138.569 84.53 139.294 84.9195C140.017 85.2974 140.847 85.3605 141.786 85.1089C142.876 84.817 143.637 84.2715 144.069 83.4725ZM139.732 78.7644C138.898 78.988 138.285 79.4131 137.894 80.0397C137.514 80.6632 137.391 81.3857 137.524 82.2072L143.157 80.6978C142.925 79.8779 142.502 79.2956 141.888 78.9508C141.274 78.606 140.555 78.5439 139.732 78.7644ZM150.941 81.2025C150.844 80.8432 150.616 80.5938 150.256 80.4543C149.907 80.3117 149.501 80.2341 149.038 80.2216C148.587 80.2059 148.126 80.1801 147.657 80.1444C147.185 80.097 146.753 79.9456 146.361 79.6902C145.978 79.4202 145.717 79.0243 145.577 78.5027C145.409 77.8768 145.508 77.3163 145.872 76.8211C146.233 76.3144 146.79 75.9601 147.544 75.7582C148.622 75.4693 149.517 75.5402 150.228 75.9706L150.027 76.7512C149.361 76.3957 148.61 76.3297 147.776 76.5533C147.312 76.6775 146.962 76.9017 146.726 77.2259C146.498 77.5354 146.432 77.8698 146.529 78.2291C146.628 78.6 146.855 78.8684 147.21 79.0341C147.574 79.1852 147.983 79.2744 148.437 79.3016C148.9 79.3142 149.367 79.3384 149.836 79.3742C150.305 79.41 150.728 79.5513 151.105 79.7982C151.493 80.042 151.754 80.4131 151.888 80.9115C152.077 81.6186 151.958 82.2406 151.53 82.7776C151.114 83.3114 150.495 83.6886 149.672 83.9091C149.162 84.0458 148.598 84.0727 147.979 83.99C147.399 83.9095 146.969 83.745 146.692 83.4964L147.037 82.7702C147.329 82.9778 147.718 83.1095 148.205 83.1653C148.704 83.2181 149.156 83.1901 149.562 83.0814C150.072 82.9447 150.457 82.7112 150.716 82.3808C150.984 82.0358 151.059 81.643 150.941 81.2025ZM156.045 82.0337L155.141 82.276L153.045 74.452L153.949 74.2097L156.045 82.0337ZM152.073 71.4512C152.026 71.2774 152.053 71.1212 152.152 70.9827C152.252 70.8442 152.389 70.7517 152.562 70.7051C152.713 70.6647 152.862 70.687 153.009 70.7718C153.164 70.842 153.264 70.9582 153.307 71.1205C153.36 71.3175 153.344 71.4895 153.259 71.6365C153.186 71.7803 153.062 71.8756 152.889 71.9222C152.703 71.9718 152.531 71.9558 152.373 71.8741C152.226 71.7892 152.126 71.6483 152.073 71.4512ZM158.417 82.628C158.259 82.0369 158.334 81.4826 158.642 80.9651C158.951 80.4476 159.466 80.0052 160.188 79.6379C159.958 79.4759 159.804 79.25 159.726 78.9602C159.649 78.6704 159.677 78.3832 159.812 78.0986C159.243 78.015 158.755 77.7918 158.347 77.429C157.939 77.0662 157.661 76.6066 157.512 76.0502C157.298 75.2504 157.405 74.5136 157.833 73.8399C158.261 73.1661 158.939 72.7049 159.866 72.4565C160.608 72.2577 161.315 72.2793 161.989 72.5212L162.006 72.5165L164.074 71.3291L164.302 72.181L162.827 73.0048C163.267 73.3962 163.559 73.8585 163.702 74.3917C163.91 75.1683 163.797 75.9066 163.363 76.6067C162.924 77.2836 162.252 77.7432 161.347 77.9854C161.023 78.0724 160.756 78.1191 160.546 78.1255C160.482 78.3042 160.482 78.5094 160.544 78.7412C160.615 79.0078 160.746 79.1963 160.937 79.3066C161.372 79.1654 161.612 79.0886 161.658 79.0761C162.852 78.7562 163.862 78.7218 164.687 78.9728C165.512 79.2238 166.03 79.7434 166.241 80.5316C166.449 81.3082 166.257 82.0057 165.665 82.624C165.076 83.2539 164.185 83.7288 162.991 84.0487C161.785 84.3717 160.772 84.4135 159.95 84.1741C159.139 83.9316 158.628 83.4162 158.417 82.628ZM159.339 82.3811C159.475 82.8911 159.849 83.2196 160.46 83.3665C161.085 83.5219 161.856 83.4769 162.772 83.2316C163.676 82.9893 164.36 82.6445 164.824 82.1972C165.288 81.7498 165.453 81.2769 165.32 80.7785C165.183 80.2685 164.802 79.9358 164.176 79.7804C163.559 79.6103 162.793 79.648 161.877 79.8933C160.973 80.1356 160.289 80.4804 159.825 80.9277C159.361 81.3751 159.199 81.8595 159.339 82.3811ZM158.669 74.2493C158.363 74.7289 158.284 75.2469 158.433 75.8033C158.582 76.3597 158.91 76.769 159.415 77.0312C159.92 77.2934 160.491 77.3391 161.128 77.1683C161.766 76.9974 162.238 76.6722 162.544 76.1926C162.851 75.713 162.929 75.195 162.78 74.6386C162.631 74.0822 162.298 73.6745 161.781 73.4154C161.276 73.1532 160.711 73.1059 160.085 73.2737C159.471 73.4383 158.999 73.7635 158.669 74.2493ZM168.667 78.6516L167.763 78.8938L165.667 71.0698L166.571 70.8276L166.865 71.9229C167.093 71.4766 167.431 71.0693 167.879 70.7008C168.338 70.3292 168.829 70.0735 169.35 69.9338C170.44 69.6418 171.333 69.7068 172.03 70.1288C172.727 70.5508 173.236 71.3587 173.556 72.5526L174.753 77.021L173.849 77.2633L172.698 72.9688C172.195 71.091 171.086 70.3819 169.37 70.8416C168.872 70.9752 168.416 71.2215 168.003 71.5807C167.587 71.9282 167.28 72.3147 167.084 72.7401L168.667 78.6516Z" fill="white"/>
<rect x="86.0869" y="57.7764" width="30" height="30" rx="3" transform="rotate(-60 86.0869 57.7764)" fill="white"/>
<circle cx="106.577" cy="52.2861" r="13" transform="rotate(-15 106.577 52.2861)" fill="#BAA5EC"/>
<rect x="96.7783" y="46.6294" width="16" height="16" rx="3" transform="rotate(-15 96.7783 46.6294)" fill="white"/>
<circle cx="106.576" cy="52.2861" r="6" transform="rotate(-15 106.576 52.2861)" fill="#BAA5EC"/>
<rect width="4.24261" height="4.24261" rx="1" transform="matrix(0.5 -0.866025 0.865989 0.500063 103.679 53.0625)" fill="white"/>
</svg>
